<svg width="276" height="136" viewBox="0 0 276 136" fill="none" xmlns="http://www.w3.org/2000/svg">
<path d="M200.719 60.0097H181.073V40.3638C181.073 37.7248 180.194 36.1121 176.822 36.1121H165.386C162.014 36.1121 161.134 37.7248 161.134 40.3638V60.0097H141.342C138.703 60.0097 137.09 60.8894 137.09 64.2614V75.6971C137.09 79.0691 138.703 79.9488 141.342 79.9488H161.134V99.5947C161.134 102.234 162.014 103.846 165.386 103.846H176.822C180.194 103.846 181.073 102.234 181.073 99.5947V79.9488H200.719C203.358 79.9488 204.971 79.0691 204.971 75.6971V64.2614C204.971 60.8894 203.358 60.0097 200.719 60.0097Z" fill="#31B44C"/>
<path d="M270.799 95.6362H260.537V24.09C260.537 23.9434 260.537 23.7968 260.537 23.6502C260.39 20.5714 258.777 19.8383 256.285 19.8383H242.064C239.571 19.8383 237.958 20.5714 237.812 23.6502C237.812 34.646 231.361 35.9655 228.575 35.9655H225.35C221.978 35.9655 221.098 37.4316 221.098 40.2172V52.0927C221.098 54.8783 221.978 56.3444 225.35 56.3444H237.812V95.6362H225.35C221.978 95.6362 221.098 97.2489 221.098 99.8879V111.91C221.098 114.549 221.978 116.162 225.35 116.162H270.799C274.171 116.162 275.051 114.549 275.051 111.91V99.8879C275.051 97.2489 274.171 95.6362 270.799 95.6362Z" fill="#31B44C"/>
<path fill-rule="evenodd" clip-rule="evenodd" d="M7.50787 46.8783C5.52491 46.8343 3.8798 46.3202 2.5872 44.9468C1.6912 43.992 1.111 42.8684 0.986139 41.5684C0.868629 40.3346 1.01551 39.1374 1.63243 38.0211C2.22732 36.9341 3.04988 36.1116 4.15153 35.524C5.26786 34.9218 6.45764 34.8116 7.69882 34.8704C6.51639 30.5446 10.0049 27.1516 13.9561 27.8199C14.2279 26.4171 14.8081 25.1833 16.0419 24.3607C17.2244 23.5676 18.4876 23.193 19.9417 23.5235C21.3812 23.8466 22.4682 24.6251 23.2246 25.7782C23.9811 25.4183 24.6862 25.0878 25.4279 24.7353C24.1867 22.5467 24.0839 20.3067 25.4353 18.1475C26.794 15.9662 28.8724 15.1143 31.4135 15.2979C30.2311 11.3687 33.2422 7.42479 37.8251 8.04906C38.2217 5.90453 39.4188 4.41365 41.5266 3.74532C43.4949 3.12105 45.9479 3.84079 47.38 6.02204C48.0851 5.52997 48.8268 5.08932 49.6935 5.00853C50.5381 4.9204 51.39 4.96446 52.1832 5.39043C52.6459 3.91423 53.4464 2.76118 54.6876 1.96065C55.8186 1.23356 57.0818 0.785557 58.4258 0.917757C60.0122 1.07199 61.4443 1.65954 62.568 2.87868C63.6696 4.0758 64.2058 5.47855 64.2425 7.16774C64.5142 7.11633 64.7419 7.05757 64.9769 7.03554C65.0291 7.02908 65.0812 7.02188 65.1334 7.01468C65.3794 6.98104 65.6313 6.94653 65.8729 6.97679C66.9158 7.13102 67.8779 7.48355 68.6417 8.26204C69.0383 8.67332 69.3321 9.13602 69.5598 9.65746C69.6259 9.80435 69.692 9.94387 69.7801 10.1201C69.8146 10.1027 69.8477 10.0812 69.8792 10.0605C69.9417 10.02 69.9982 9.9831 70.0518 9.98795C70.4925 10.0449 70.679 9.77122 70.8905 9.46041C70.8972 9.4502 70.9038 9.43998 70.9111 9.42977C71.506 8.56315 72.3506 8.13717 73.4008 8.11514C73.5426 8.11022 73.685 8.11192 73.8268 8.11353C73.898 8.11434 73.9685 8.11514 74.0398 8.11514C74.6053 5.36103 77.8368 4.72207 79.4378 6.91802C79.8858 6.7491 80.3118 6.50675 80.7672 6.43331C81.0778 6.38667 81.3995 6.43139 81.73 6.47722C81.8673 6.49639 82.0069 6.51578 82.1479 6.52878C83.1026 4.72943 84.4099 3.89219 85.9008 4.16393C87.7442 4.50176 88.699 5.552 88.9634 7.58637C90.3955 7.34401 91.4457 7.86545 92.0333 9.25353C93.5903 8.87897 94.9269 9.26086 95.8964 10.5167C96.8658 11.7653 96.8364 13.146 96.1534 14.5561C97.3138 15.2244 97.9528 16.1865 97.7398 17.5526C97.5268 18.8892 96.6528 19.609 95.3309 19.9027C95.4117 20.057 95.4778 20.1671 95.5439 20.292C96.7777 19.9248 97.9601 20.0276 99.0691 20.6225C100.7 21.4964 101.625 22.8258 101.647 24.7206C101.654 25.3081 101.647 25.8883 101.412 26.4465C101.361 26.5713 101.302 26.7623 101.544 26.8725C102.337 25.0437 103.681 24.111 105.708 24.5002C107.207 24.7867 108.139 26.0058 108.396 27.8786C109.021 27.7391 109.638 27.7758 110.225 28.0843C110.82 28.4001 111.195 28.8995 111.452 29.5311C113.009 29.1565 114.353 29.5311 115.322 30.787C116.284 32.0282 116.284 33.4089 115.572 34.8116C116.894 35.5975 117.467 36.7065 117.077 38.1974C116.769 39.3724 115.895 39.9747 114.206 40.2244C114.286 40.9662 114.264 41.7079 113.802 42.435C114.007 42.457 114.154 42.4717 114.301 42.4864C115.88 42.5672 117.195 43.1841 118.091 44.5134C119.068 45.9603 119.156 47.5099 118.495 49.1183C118.436 49.2652 118.363 49.4121 118.304 49.559C118.296 49.5737 118.296 49.5883 118.282 49.6398C119.119 50.0951 119.809 50.7267 120.162 51.6447C120.448 52.3865 120.485 53.165 120.287 53.9435C119.876 55.5519 118.678 56.4112 116.446 56.6829C116.615 57.6818 116.556 58.6586 115.983 59.5325C115.425 60.3771 114.676 60.972 113.626 61.1483C113.614 61.3398 113.726 61.4487 113.832 61.5513C113.86 61.5785 113.887 61.6052 113.912 61.633C114.514 62.316 114.925 63.1165 115.036 63.9978C115.16 64.9526 115.116 65.9147 114.654 66.8034C114.573 66.9576 114.507 67.1265 114.426 67.3028C116.123 68.2869 116.989 69.7337 116.504 71.6506C116.012 73.5968 114.536 74.4561 112.553 74.5075C112.862 76.1012 112.465 77.4379 111.18 78.422C109.836 79.4576 108.396 79.3915 106.905 78.6277C106.002 80.3536 104.636 81.3377 102.66 81.1321C100.707 80.9338 99.5612 79.722 99.003 77.8198C98.1437 78.2384 97.2551 78.378 96.271 78.1723C96.5427 78.9728 96.6014 79.7513 96.1314 80.4711C95.654 81.2055 94.949 81.514 94.0383 81.5287C94.1705 82.5202 93.9502 83.3721 93.1276 83.9596C92.3197 84.5325 91.4678 84.4958 90.6159 84.0625C89.3379 86.3833 86.459 85.8985 85.776 83.6512C85.4381 83.7099 85.093 83.8054 84.7478 83.8127C84.5106 83.8179 84.2726 83.7819 84.0295 83.7444C83.9348 83.7298 83.8385 83.7151 83.7416 83.7026C82.3829 85.9206 79.8932 85.3183 79.1 83.5263C78.0571 84.5545 76.8527 84.9217 75.5233 84.2314C74.2087 83.541 73.8121 82.3659 74.0545 80.9118C73.8929 80.8971 73.7607 80.8824 73.6212 80.8604C72.3947 80.7061 71.5574 80.0598 71.1388 78.8847C71.0727 78.7011 70.9772 78.5322 70.8891 78.356C70.7349 78.0548 70.5806 77.7611 70.4191 77.4379C69.7728 77.7097 69.0971 77.7464 68.4141 77.4746C67.8706 78.422 67.1508 78.9802 66.0419 78.9508C64.9476 78.9215 64.2792 78.3192 63.7798 77.3718C62.9573 78.2017 62.0319 78.6057 60.8788 78.3192C59.7478 78.0401 59.0868 77.2984 58.7343 76.2408C58.2422 76.1233 57.7648 76.0131 57.2434 75.8883C56.7073 76.8651 55.8847 77.4673 54.6802 77.3498C53.4978 77.2323 52.8221 76.4832 52.4549 75.3668C51.7719 75.6386 51.1036 75.6973 50.4279 75.4109C50.281 75.6239 50.1782 75.8075 50.046 75.9764C49.6861 76.4171 49.2455 76.7255 48.6726 76.843C48.4302 76.8944 48.2026 76.9532 48.019 77.1588C47.1817 78.0915 45.5293 78.4294 44.1926 77.739C44.1338 77.7096 44.0751 77.6729 43.9649 77.6068C43.1791 79.1197 41.982 80.0011 40.234 79.8322C38.4714 79.6632 37.4285 78.5983 36.9732 76.9899C36.393 77.0854 35.8495 77.2176 35.2913 77.2543C34.9682 77.2763 34.6156 77.2029 34.3072 77.0927C33.984 76.9752 33.8812 77.0927 33.7343 77.3498C33.2055 78.2752 32.4197 78.848 31.3695 79.0977C29.8712 79.4502 28.1967 78.6497 27.5211 77.3571C27.4329 77.1882 27.3448 77.0119 27.242 76.7989C25.7805 78.3559 24.0546 78.8553 22.145 77.93C20.1327 76.9605 19.5158 75.2199 19.8977 73.0607C19.5158 72.9946 19.1559 72.9358 18.7887 72.8771C16.96 72.598 15.4617 70.828 15.4691 68.8818C15.4838 66.9576 16.769 65.1729 18.9062 64.8204C19.1508 64.7805 19.4057 64.7915 19.6639 64.8026C19.7854 64.8078 19.9077 64.8131 20.0299 64.8131C19.9785 64.2843 19.9418 63.8289 19.883 63.3736C19.8683 63.2781 19.8022 63.1753 19.7288 63.1092C18.7887 62.294 18.4141 61.2805 18.6198 60.054C18.6271 60.0026 18.6198 59.9438 18.6124 59.8924C18.6124 59.8777 18.5904 59.863 18.5537 59.8116C17.5769 59.7602 16.6735 59.4517 16.0199 58.6292C15.5205 57.9976 15.3369 57.2778 15.3736 56.4846C15.447 54.8909 16.6368 53.8774 18.752 53.6718C18.539 53.2385 18.3333 52.8272 18.1057 52.3792C16.1154 54.5898 13.7579 55.2434 11.0331 54.2446C9.57162 53.7085 8.49934 52.6582 7.83101 51.2261C7.20674 49.8381 7.0158 48.4059 7.50787 46.8783ZM83.9399 84.3562C83.558 84.841 83.0953 85.2743 82.4784 85.5166C82.3389 85.5754 82.2287 85.7517 82.1406 85.8985C81.7954 86.4787 81.4722 87.0736 81.1271 87.6538C78.821 91.4876 76.0154 94.8806 72.4681 97.6421C70.5366 99.1476 68.4508 100.404 66.1961 101.366C65.5204 101.652 65.1606 101.373 65.2487 100.639C65.3001 100.213 65.3442 99.7866 65.3956 99.368C65.6233 97.4071 65.8583 95.4461 66.086 93.4852C66.321 91.4729 66.5634 89.4605 66.7764 87.4408C66.9967 85.333 67.1876 83.2252 67.3859 81.1174C67.4447 80.5078 67.4741 79.8909 67.5181 79.252C65.9832 79.722 64.6538 79.5751 63.633 78.2531C62.9353 78.7526 62.1935 79.0023 61.3416 78.9435C61.2828 79.1418 61.2241 79.3107 61.1727 79.4796C60.1224 83.0416 59.0722 86.611 58.0293 90.1729C57.9926 90.3125 57.9559 90.452 57.8971 90.5769C57.7429 90.9147 57.4418 91.0249 57.1039 90.8633C57.0084 90.8192 56.9203 90.7531 56.8322 90.687C54.6656 89.1888 52.5725 87.5877 50.6483 85.781C48.636 83.8936 46.8513 81.8298 45.522 79.3988C45.2282 78.8627 44.9124 78.4661 44.2808 78.4C44.2441 78.4 44.2147 78.4074 44.1266 78.4147C43.517 79.4502 42.5843 80.1039 41.3578 80.3316C41.4018 80.4785 41.4312 80.5813 41.4679 80.6841C42.2831 83.0783 43.4582 85.2816 44.9051 87.3454C47.0349 90.3786 49.6127 93.0005 52.4183 95.4094C53.2996 96.1585 54.1956 96.8929 55.0989 97.6053C55.4441 97.8771 55.5616 98.1708 55.4147 98.5821C55.3854 98.6629 55.3633 98.751 55.3339 98.8392C53.1013 105.993 51.2799 113.249 49.6348 120.549C48.6653 124.823 48.0631 129.156 48.019 133.548C48.0138 133.912 48.027 134.275 48.0403 134.644C48.0459 134.797 48.0514 134.95 48.0558 135.105H66.6735C66.6662 135.017 66.6588 134.936 66.6441 134.856C65.8656 131.602 65.2634 128.312 64.8228 125C64.4555 122.245 64.2205 119.484 64.1324 116.708C64.0538 114.089 64.2396 111.476 64.4261 108.864L64.4408 108.658C64.4776 108.166 64.7126 107.909 65.1606 107.718C69.927 105.684 73.959 102.651 77.3374 98.7364C80.5762 94.9908 82.9558 90.7458 84.7331 86.1482C84.9534 85.568 85.1591 84.9878 85.3941 84.3636H83.9399L83.9399 84.3562Z" fill="#31B44C"/>
</svg>
